<?xml version="1.0" encoding="utf-8" standalone="no"?>
<!DOCTYPE svg PUBLIC "-//W3C//DTD SVG 1.1//EN"
  "http://www.w3.org/Graphics/SVG/1.1/DTD/svg11.dtd">
<svg xmlns:xlink="http://www.w3.org/1999/xlink" width="820pt" height="525.06pt" viewBox="0 0 820 525.06" xmlns="http://www.w3.org/2000/svg" version="1.1">
 <metadata>
  <rdf:RDF xmlns:dc="http://purl.org/dc/elements/1.1/" xmlns:cc="http://creativecommons.org/ns#" xmlns:rdf="http://www.w3.org/1999/02/22-rdf-syntax-ns#">
   <cc:Work>
    <dc:type rdf:resource="http://purl.org/dc/dcmitype/StillImage"/>
    <dc:date>2026-06-12T02:30:08.879754</dc:date>
    <dc:format>image/svg+xml</dc:format>
    <dc:creator>
     <cc:Agent>
      <dc:title>Matplotlib v3.10.8, https://matplotlib.org/</dc:title>
     </cc:Agent>
    </dc:creator>
   </cc:Work>
  </rdf:RDF>
 </metadata>
 <defs>
  <style type="text/css">*{stroke-linejoin: round; stroke-linecap: butt}</style>
 </defs>
 <g id="figure_1">
  <g id="patch_1">
   <path d="M 0 525.06 
L 820 525.06 
L 820 0 
L 0 0 
z
" style="fill: #ffffff"/>
  </g>
  <g id="axes_1">
   <g id="patch_2">
    <path d="M 10.7 514.36 
L 812.8 514.36 
L 812.8 7.2 
L 10.7 7.2 
z
" style="fill: #ffffff"/>
   </g>
   <g id="patch_3">
    <path d="M 10.7 36.015909 
L 100.865808 36.015909 
L 100.865808 82.121364 
L 10.7 82.121364 
z
" clip-path="url(#pe717fab56a)" style="fill: #7fb3d5; stroke: #000000; stroke-linejoin: miter"/>
   </g>
   <g id="patch_4">
    <path d="M 100.865808 36.015909 
L 151.584075 36.015909 
L 151.584075 82.121364 
L 100.865808 82.121364 
z
" clip-path="url(#pe717fab56a)" style="fill: #f39c12; stroke: #000000; stroke-linejoin: miter"/>
   </g>
   <g id="patch_5">
    <path d="M 172.247073 36.015909 
L 350.700234 36.015909 
L 350.700234 82.121364 
L 172.247073 82.121364 
z
" clip-path="url(#pe717fab56a)" style="fill: #bcaaa4; stroke: #000000; stroke-linejoin: miter"/>
   </g>
   <g id="patch_6">
    <path d="M 418.32459 36.015909 
L 591.142389 36.015909 
L 591.142389 82.121364 
L 418.32459 82.121364 
z
" clip-path="url(#pe717fab56a)" style="fill: #bcaaa4; stroke: #000000; stroke-linejoin: miter"/>
   </g>
   <g id="patch_7">
    <path d="M 10.7 93.647727 
L 29.484543 93.647727 
L 29.484543 139.753182 
L 10.7 139.753182 
z
" clip-path="url(#pe717fab56a)" style="fill: #9aa7b5; stroke: #000000; stroke-linejoin: miter"/>
   </g>
   <g id="patch_8">
    <path d="M 29.484543 93.647727 
L 40.755269 93.647727 
L 40.755269 139.753182 
L 29.484543 139.753182 
z
" clip-path="url(#pe717fab56a)" style="fill: #9aa7b5; stroke: #000000; stroke-linejoin: miter"/>
   </g>
   <g id="patch_9">
    <path d="M 61.418267 93.647727 
L 147.827166 93.647727 
L 147.827166 139.753182 
L 61.418267 139.753182 
z
" clip-path="url(#pe717fab56a)" style="fill: #f39c12; stroke: #000000; stroke-linejoin: miter"/>
   </g>
   <g id="patch_10">
    <path d="M 147.827166 93.647727 
L 258.655972 93.647727 
L 258.655972 139.753182 
L 147.827166 139.753182 
z
" clip-path="url(#pe717fab56a)" style="fill: #a3d977; stroke: #000000; stroke-linejoin: miter"/>
   </g>
   <g id="patch_11">
    <path d="M 258.655972 93.647727 
L 337.551054 93.647727 
L 337.551054 139.753182 
L 258.655972 139.753182 
z
" clip-path="url(#pe717fab56a)" style="fill: #bcaaa4; stroke: #000000; stroke-linejoin: miter"/>
   </g>
   <g id="patch_12">
    <path d="M 341.307963 93.647727 
L 516.004215 93.647727 
L 516.004215 139.753182 
L 341.307963 139.753182 
z
" clip-path="url(#pe717fab56a)" style="fill: #bcaaa4; stroke: #000000; stroke-linejoin: miter"/>
   </g>
   <g id="patch_13">
    <path d="M 29.484543 151.279545 
L 35.119906 151.279545 
L 35.119906 197.385 
L 29.484543 197.385 
z
" clip-path="url(#pe717fab56a)" style="fill: #9aa7b5; stroke: #000000; stroke-linejoin: miter"/>
   </g>
   <g id="patch_14">
    <path d="M 104.622717 151.279545 
L 159.097892 151.279545 
L 159.097892 197.385 
L 104.622717 197.385 
z
" clip-path="url(#pe717fab56a)" style="fill: #7fb3d5; stroke: #000000; stroke-linejoin: miter"/>
   </g>
   <g id="patch_15">
    <path d="M 196.666979 151.279545 
L 237.992974 151.279545 
L 237.992974 197.385 
L 196.666979 197.385 
z
" clip-path="url(#pe717fab56a)" style="fill: #f39c12; stroke: #000000; stroke-linejoin: miter"/>
   </g>
   <g id="patch_16">
    <path d="M 273.683607 151.279545 
L 350.700234 151.279545 
L 350.700234 197.385 
L 273.683607 197.385 
z
" clip-path="url(#pe717fab56a)" style="fill: #a3d977; stroke: #000000; stroke-linejoin: miter"/>
   </g>
   <g id="patch_17">
    <path d="M 350.700234 151.279545 
L 463.407494 151.279545 
L 463.407494 197.385 
L 350.700234 197.385 
z
" clip-path="url(#pe717fab56a)" style="fill: #bcaaa4; stroke: #000000; stroke-linejoin: miter"/>
   </g>
   <g id="patch_18">
    <path d="M 516.004215 151.279545 
L 591.142389 151.279545 
L 591.142389 197.385 
L 516.004215 197.385 
z
" clip-path="url(#pe717fab56a)" style="fill: #bcaaa4; stroke: #000000; stroke-linejoin: miter"/>
   </g>
   <g id="patch_19">
    <path d="M 591.142389 151.279545 
L 677.551288 151.279545 
L 677.551288 197.385 
L 591.142389 197.385 
z
" clip-path="url(#pe717fab56a)" style="fill: #bcaaa4; stroke: #000000; stroke-linejoin: miter"/>
   </g>
   <g id="patch_20">
    <path d="M 40.755269 208.911364 
L 91.473536 208.911364 
L 91.473536 255.016818 
L 40.755269 255.016818 
z
" clip-path="url(#pe717fab56a)" style="fill: #9aa7b5; stroke: #000000; stroke-linejoin: miter"/>
   </g>
   <g id="patch_21">
    <path d="M 151.584075 208.911364 
L 273.683607 208.911364 
L 273.683607 255.016818 
L 151.584075 255.016818 
z
" clip-path="url(#pe717fab56a)" style="fill: #f39c12; stroke: #000000; stroke-linejoin: miter"/>
   </g>
   <g id="patch_22">
    <path d="M 337.551054 208.911364 
L 472.799766 208.911364 
L 472.799766 255.016818 
L 337.551054 255.016818 
z
" clip-path="url(#pe717fab56a)" style="fill: #bcaaa4; stroke: #000000; stroke-linejoin: miter"/>
   </g>
   <g id="patch_23">
    <path d="M 159.097892 266.543182 
L 275.562061 266.543182 
L 275.562061 312.648636 
L 159.097892 312.648636 
z
" clip-path="url(#pe717fab56a)" style="fill: #f39c12; stroke: #000000; stroke-linejoin: miter"/>
   </g>
   <g id="patch_24">
    <path d="M 376.998595 266.543182 
L 454.015222 266.543182 
L 454.015222 312.648636 
L 376.998595 312.648636 
z
" clip-path="url(#pe717fab56a)" style="fill: #f39c12; stroke: #000000; stroke-linejoin: miter"/>
   </g>
   <g id="patch_25">
    <path d="M 472.799766 266.543182 
L 609.926932 266.543182 
L 609.926932 312.648636 
L 472.799766 312.648636 
z
" clip-path="url(#pe717fab56a)" style="fill: #bcaaa4; stroke: #000000; stroke-linejoin: miter"/>
   </g>
   <g id="patch_26">
    <path d="M 677.551288 266.543182 
L 716.998829 266.543182 
L 716.998829 312.648636 
L 677.551288 312.648636 
z
" clip-path="url(#pe717fab56a)" style="fill: #bcaaa4; stroke: #000000; stroke-linejoin: miter"/>
   </g>
   <g id="patch_27">
    <path d="M 35.119906 324.175 
L 76.445902 324.175 
L 76.445902 370.280455 
L 35.119906 370.280455 
z
" clip-path="url(#pe717fab56a)" style="fill: #9aa7b5; stroke: #000000; stroke-linejoin: miter"/>
   </g>
   <g id="patch_28">
    <path d="M 91.473536 324.175 
L 136.55644 324.175 
L 136.55644 370.280455 
L 91.473536 370.280455 
z
" clip-path="url(#pe717fab56a)" style="fill: #9aa7b5; stroke: #000000; stroke-linejoin: miter"/>
   </g>
   <g id="patch_29">
    <path d="M 237.992974 324.175 
L 253.020609 324.175 
L 253.020609 370.280455 
L 237.992974 370.280455 
z
" clip-path="url(#pe717fab56a)" style="fill: #7fb3d5; stroke: #000000; stroke-linejoin: miter"/>
   </g>
   <g id="patch_30">
    <path d="M 273.683607 324.175 
L 437.109133 324.175 
L 437.109133 370.280455 
L 273.683607 370.280455 
z
" clip-path="url(#pe717fab56a)" style="fill: #a3d977; stroke: #000000; stroke-linejoin: miter"/>
   </g>
   <g id="patch_31">
    <path d="M 463.407494 324.175 
L 574.2363 324.175 
L 574.2363 370.280455 
L 463.407494 370.280455 
z
" clip-path="url(#pe717fab56a)" style="fill: #bcaaa4; stroke: #000000; stroke-linejoin: miter"/>
   </g>
   <g id="patch_32">
    <path d="M 591.142389 324.175 
L 715.120375 324.175 
L 715.120375 370.280455 
L 591.142389 370.280455 
z
" clip-path="url(#pe717fab56a)" style="fill: #bcaaa4; stroke: #000000; stroke-linejoin: miter"/>
   </g>
   <g id="patch_33">
    <path d="M 136.55644 381.806818 
L 209.816159 381.806818 
L 209.816159 427.912273 
L 136.55644 427.912273 
z
" clip-path="url(#pe717fab56a)" style="fill: #9aa7b5; stroke: #000000; stroke-linejoin: miter"/>
   </g>
   <g id="patch_34">
    <path d="M 275.562061 381.806818 
L 454.015222 381.806818 
L 454.015222 427.912273 
L 275.562061 427.912273 
z
" clip-path="url(#pe717fab56a)" style="fill: #f39c12; stroke: #000000; stroke-linejoin: miter"/>
   </g>
   <g id="patch_35">
    <path d="M 454.015222 381.806818 
L 574.2363 381.806818 
L 574.2363 427.912273 
L 454.015222 427.912273 
z
" clip-path="url(#pe717fab56a)" style="fill: #f39c12; stroke: #000000; stroke-linejoin: miter"/>
   </g>
   <g id="patch_36">
    <path d="M 574.2363 381.806818 
L 716.998829 381.806818 
L 716.998829 427.912273 
L 574.2363 427.912273 
z
" clip-path="url(#pe717fab56a)" style="fill: #bcaaa4; stroke: #000000; stroke-linejoin: miter"/>
   </g>
   <g id="patch_37">
    <path d="M 716.998829 381.806818 
L 810.921546 381.806818 
L 810.921546 427.912273 
L 716.998829 427.912273 
z
" clip-path="url(#pe717fab56a)" style="fill: #bcaaa4; stroke: #000000; stroke-linejoin: miter"/>
   </g>
   <g id="patch_38">
    <path d="M 76.445902 439.438636 
L 177.882436 439.438636 
L 177.882436 485.544091 
L 76.445902 485.544091 
z
" clip-path="url(#pe717fab56a)" style="fill: #9aa7b5; stroke: #000000; stroke-linejoin: miter"/>
   </g>
   <g id="patch_39">
    <path d="M 253.020609 439.438636 
L 437.109133 439.438636 
L 437.109133 485.544091 
L 253.020609 485.544091 
z
" clip-path="url(#pe717fab56a)" style="fill: #7fb3d5; stroke: #000000; stroke-linejoin: miter"/>
   </g>
   <g id="patch_40">
    <path d="M 437.109133 439.438636 
L 609.926932 439.438636 
L 609.926932 485.544091 
L 437.109133 485.544091 
z
" clip-path="url(#pe717fab56a)" style="fill: #a3d977; stroke: #000000; stroke-linejoin: miter"/>
   </g>
   <g id="patch_41">
    <path d="M 609.926932 439.438636 
L 715.120375 439.438636 
L 715.120375 485.544091 
L 609.926932 485.544091 
z
" clip-path="url(#pe717fab56a)" style="fill: #bcaaa4; stroke: #000000; stroke-linejoin: miter"/>
   </g>
   <g id="patch_42">
    <path d="M 715.120375 439.438636 
L 810.921546 439.438636 
L 810.921546 485.544091 
L 715.120375 485.544091 
z
" clip-path="url(#pe717fab56a)" style="fill: #bcaaa4; stroke: #000000; stroke-linejoin: miter"/>
   </g>
   <g id="matplotlib.axis_1">
    <g id="xtick_1">
     <g id="line2d_1">
      <path d="M 10.7 514.36 
L 10.7 7.2 
" clip-path="url(#pe717fab56a)" style="fill: none; stroke-dasharray: 2.96,1.28; stroke-dashoffset: 0; stroke: #b0b0b0; stroke-opacity: 0.3; stroke-width: 0.8"/>
     </g>
     <g id="line2d_2">
      <defs>
       <path id="ma36511a6ee" d="M 0 0 
L 0 3.5 
" style="stroke: #000000; stroke-width: 0.8"/>
      </defs>
      <g>
       <use xlink:href="#ma36511a6ee" x="10.7" y="514.36" style="stroke: #000000; stroke-width: 0.8"/>
      </g>
     </g>
    </g>
    <g id="xtick_2">
     <g id="line2d_3">
      <path d="M 104.622717 514.36 
L 104.622717 7.2 
" clip-path="url(#pe717fab56a)" style="fill: none; stroke-dasharray: 2.96,1.28; stroke-dashoffset: 0; stroke: #b0b0b0; stroke-opacity: 0.3; stroke-width: 0.8"/>
     </g>
     <g id="line2d_4">
      <g>
       <use xlink:href="#ma36511a6ee" x="104.622717" y="514.36" style="stroke: #000000; stroke-width: 0.8"/>
      </g>
     </g>
    </g>
    <g id="xtick_3">
     <g id="line2d_5">
      <path d="M 198.545433 514.36 
L 198.545433 7.2 
" clip-path="url(#pe717fab56a)" style="fill: none; stroke-dasharray: 2.96,1.28; stroke-dashoffset: 0; stroke: #b0b0b0; stroke-opacity: 0.3; stroke-width: 0.8"/>
     </g>
     <g id="line2d_6">
      <g>
       <use xlink:href="#ma36511a6ee" x="198.545433" y="514.36" style="stroke: #000000; stroke-width: 0.8"/>
      </g>
     </g>
    </g>
    <g id="xtick_4">
     <g id="line2d_7">
      <path d="M 292.46815 514.36 
L 292.46815 7.2 
" clip-path="url(#pe717fab56a)" style="fill: none; stroke-dasharray: 2.96,1.28; stroke-dashoffset: 0; stroke: #b0b0b0; stroke-opacity: 0.3; stroke-width: 0.8"/>
     </g>
     <g id="line2d_8">
      <g>
       <use xlink:href="#ma36511a6ee" x="292.46815" y="514.36" style="stroke: #000000; stroke-width: 0.8"/>
      </g>
     </g>
    </g>
    <g id="xtick_5">
     <g id="line2d_9">
      <path d="M 386.390867 514.36 
L 386.390867 7.2 
" clip-path="url(#pe717fab56a)" style="fill: none; stroke-dasharray: 2.96,1.28; stroke-dashoffset: 0; stroke: #b0b0b0; stroke-opacity: 0.3; stroke-width: 0.8"/>
     </g>
     <g id="line2d_10">
      <g>
       <use xlink:href="#ma36511a6ee" x="386.390867" y="514.36" style="stroke: #000000; stroke-width: 0.8"/>
      </g>
     </g>
    </g>
    <g id="xtick_6">
     <g id="line2d_11">
      <path d="M 480.313583 514.36 
L 480.313583 7.2 
" clip-path="url(#pe717fab56a)" style="fill: none; stroke-dasharray: 2.96,1.28; stroke-dashoffset: 0; stroke: #b0b0b0; stroke-opacity: 0.3; stroke-width: 0.8"/>
     </g>
     <g id="line2d_12">
      <g>
       <use xlink:href="#ma36511a6ee" x="480.313583" y="514.36" style="stroke: #000000; stroke-width: 0.8"/>
      </g>
     </g>
    </g>
    <g id="xtick_7">
     <g id="line2d_13">
      <path d="M 574.2363 514.36 
L 574.2363 7.2 
" clip-path="url(#pe717fab56a)" style="fill: none; stroke-dasharray: 2.96,1.28; stroke-dashoffset: 0; stroke: #b0b0b0; stroke-opacity: 0.3; stroke-width: 0.8"/>
     </g>
     <g id="line2d_14">
      <g>
       <use xlink:href="#ma36511a6ee" x="574.2363" y="514.36" style="stroke: #000000; stroke-width: 0.8"/>
      </g>
     </g>
    </g>
    <g id="xtick_8">
     <g id="line2d_15">
      <path d="M 668.159016 514.36 
L 668.159016 7.2 
" clip-path="url(#pe717fab56a)" style="fill: none; stroke-dasharray: 2.96,1.28; stroke-dashoffset: 0; stroke: #b0b0b0; stroke-opacity: 0.3; stroke-width: 0.8"/>
     </g>
     <g id="line2d_16">
      <g>
       <use xlink:href="#ma36511a6ee" x="668.159016" y="514.36" style="stroke: #000000; stroke-width: 0.8"/>
      </g>
     </g>
    </g>
    <g id="xtick_9">
     <g id="line2d_17">
      <path d="M 762.081733 514.36 
L 762.081733 7.2 
" clip-path="url(#pe717fab56a)" style="fill: none; stroke-dasharray: 2.96,1.28; stroke-dashoffset: 0; stroke: #b0b0b0; stroke-opacity: 0.3; stroke-width: 0.8"/>
     </g>
     <g id="line2d_18">
      <g>
       <use xlink:href="#ma36511a6ee" x="762.081733" y="514.36" style="stroke: #000000; stroke-width: 0.8"/>
      </g>
     </g>
    </g>
   </g>
   <g id="matplotlib.axis_2">
    <g id="ytick_1">
     <g id="line2d_19">
      <defs>
       <path id="m7dfb0d0e48" d="M 0 0 
L -3.5 0 
" style="stroke: #000000; stroke-width: 0.8"/>
      </defs>
      <g>
       <use xlink:href="#m7dfb0d0e48" x="10.7" y="59.068636" style="stroke: #000000; stroke-width: 0.8"/>
      </g>
     </g>
    </g>
    <g id="ytick_2">
     <g id="line2d_20">
      <g>
       <use xlink:href="#m7dfb0d0e48" x="10.7" y="116.700455" style="stroke: #000000; stroke-width: 0.8"/>
      </g>
     </g>
    </g>
    <g id="ytick_3">
     <g id="line2d_21">
      <g>
       <use xlink:href="#m7dfb0d0e48" x="10.7" y="174.332273" style="stroke: #000000; stroke-width: 0.8"/>
      </g>
     </g>
    </g>
    <g id="ytick_4">
     <g id="line2d_22">
      <g>
       <use xlink:href="#m7dfb0d0e48" x="10.7" y="231.964091" style="stroke: #000000; stroke-width: 0.8"/>
      </g>
     </g>
    </g>
    <g id="ytick_5">
     <g id="line2d_23">
      <g>
       <use xlink:href="#m7dfb0d0e48" x="10.7" y="289.595909" style="stroke: #000000; stroke-width: 0.8"/>
      </g>
     </g>
    </g>
    <g id="ytick_6">
     <g id="line2d_24">
      <g>
       <use xlink:href="#m7dfb0d0e48" x="10.7" y="347.227727" style="stroke: #000000; stroke-width: 0.8"/>
      </g>
     </g>
    </g>
    <g id="ytick_7">
     <g id="line2d_25">
      <g>
       <use xlink:href="#m7dfb0d0e48" x="10.7" y="404.859545" style="stroke: #000000; stroke-width: 0.8"/>
      </g>
     </g>
    </g>
    <g id="ytick_8">
     <g id="line2d_26">
      <g>
       <use xlink:href="#m7dfb0d0e48" x="10.7" y="462.491364" style="stroke: #000000; stroke-width: 0.8"/>
      </g>
     </g>
    </g>
   </g>
   <g id="patch_43">
    <path d="M 10.7 514.36 
L 10.7 7.2 
" style="fill: none; stroke: #000000; stroke-width: 0.8; stroke-linejoin: miter; stroke-linecap: square"/>
   </g>
   <g id="patch_44">
    <path d="M 812.8 514.36 
L 812.8 7.2 
" style="fill: none; stroke: #000000; stroke-width: 0.8; stroke-linejoin: miter; stroke-linecap: square"/>
   </g>
   <g id="patch_45">
    <path d="M 10.7 514.36 
L 812.8 514.36 
" style="fill: none; stroke: #000000; stroke-width: 0.8; stroke-linejoin: miter; stroke-linecap: square"/>
   </g>
   <g id="patch_46">
    <path d="M 10.7 7.2 
L 812.8 7.2 
" style="fill: none; stroke: #000000; stroke-width: 0.8; stroke-linejoin: miter; stroke-linecap: square"/>
   </g>
   <g id="line2d_27">
    <path d="M 61.418267 514.36 
L 61.418267 7.2 
" clip-path="url(#pe717fab56a)" style="fill: none; stroke-dasharray: 7.4,3.2; stroke-dashoffset: 0; stroke: #ff0000; stroke-width: 2"/>
   </g>
   <g id="line2d_28">
    <path d="M 574.2363 514.36 
L 574.2363 7.2 
" clip-path="url(#pe717fab56a)" style="fill: none; stroke-dasharray: 7.4,3.2; stroke-dashoffset: 0; stroke: #ff0000; stroke-width: 2"/>
   </g>
  </g>
 </g>
 <defs>
  <clipPath id="pe717fab56a">
   <rect x="10.7" y="7.2" width="802.1" height="507.16"/>
  </clipPath>
 </defs>
</svg>
