<?xml version="1.0" encoding="utf-8" standalone="no"?>
<!DOCTYPE svg PUBLIC "-//W3C//DTD SVG 1.1//EN"
  "http://www.w3.org/Graphics/SVG/1.1/DTD/svg11.dtd">
<svg xmlns:xlink="http://www.w3.org/1999/xlink" width="820pt" height="538.238125pt" viewBox="0 0 820 538.238125" xmlns="http://www.w3.org/2000/svg" version="1.1">
 <metadata>
  <rdf:RDF xmlns:dc="http://purl.org/dc/elements/1.1/" xmlns:cc="http://creativecommons.org/ns#" xmlns:rdf="http://www.w3.org/1999/02/22-rdf-syntax-ns#">
   <cc:Work>
    <dc:type rdf:resource="http://purl.org/dc/dcmitype/StillImage"/>
    <dc:date>2026-06-12T02:29:22.259367</dc:date>
    <dc:format>image/svg+xml</dc:format>
    <dc:creator>
     <cc:Agent>
      <dc:title>Matplotlib v3.10.8, https://matplotlib.org/</dc:title>
     </cc:Agent>
    </dc:creator>
   </cc:Work>
  </rdf:RDF>
 </metadata>
 <defs>
  <style type="text/css">*{stroke-linejoin: round; stroke-linecap: butt}</style>
 </defs>
 <g id="figure_1">
  <g id="patch_1">
   <path d="M 0 538.238125 
L 820 538.238125 
L 820 0 
L 0 0 
z
" style="fill: #ffffff"/>
  </g>
  <g id="axes_1">
   <g id="patch_2">
    <path d="M 10.7 514.36 
L 812.8 514.36 
L 812.8 7.2 
L 10.7 7.2 
z
" style="fill: #ffffff"/>
   </g>
   <g id="patch_3">
    <path d="M 10.7 36.015909 
L 22.131354 36.015909 
L 22.131354 82.121364 
L 10.7 82.121364 
z
" clip-path="url(#p1660cdfad6)" style="fill: #ff7f0e; opacity: 0.5; stroke: #000000; stroke-linejoin: miter"/>
   </g>
   <g id="patch_4">
    <path d="M 22.131354 36.015909 
L 109.771734 36.015909 
L 109.771734 82.121364 
L 22.131354 82.121364 
z
" clip-path="url(#p1660cdfad6)" style="fill: #1f77b4; opacity: 0.5; stroke: #000000; stroke-linejoin: miter"/>
   </g>
   <g id="patch_5">
    <path d="M 109.771734 36.015909 
L 128.82399 36.015909 
L 128.82399 82.121364 
L 109.771734 82.121364 
z
" clip-path="url(#p1660cdfad6)" style="fill: #c7c7c7; opacity: 0.5; stroke: #000000; stroke-linejoin: miter"/>
   </g>
   <g id="patch_6">
    <path d="M 145.971021 36.015909 
L 258.379335 36.015909 
L 258.379335 82.121364 
L 145.971021 82.121364 
z
" clip-path="url(#p1660cdfad6)" style="fill: #dbdb8d; opacity: 0.5; stroke: #000000; stroke-linejoin: miter"/>
   </g>
   <g id="patch_7">
    <path d="M 258.379335 36.015909 
L 439.375772 36.015909 
L 439.375772 82.121364 
L 258.379335 82.121364 
z
" clip-path="url(#p1660cdfad6)" style="fill: #f7b6d2; opacity: 0.5; stroke: #000000; stroke-linejoin: miter"/>
   </g>
   <g id="patch_8">
    <path d="M 10.7 93.647727 
L 62.141093 93.647727 
L 62.141093 139.753182 
L 10.7 139.753182 
z
" clip-path="url(#p1660cdfad6)" style="fill: #d62728; opacity: 0.5; stroke: #000000; stroke-linejoin: miter"/>
   </g>
   <g id="patch_9">
    <path d="M 62.141093 93.647727 
L 153.591924 93.647727 
L 153.591924 139.753182 
L 62.141093 139.753182 
z
" clip-path="url(#p1660cdfad6)" style="fill: #2ca02c; opacity: 0.5; stroke: #000000; stroke-linejoin: miter"/>
   </g>
   <g id="patch_10">
    <path d="M 155.49715 93.647727 
L 235.516627 93.647727 
L 235.516627 139.753182 
L 155.49715 139.753182 
z
" clip-path="url(#p1660cdfad6)" style="fill: #9467bd; opacity: 0.5; stroke: #000000; stroke-linejoin: miter"/>
   </g>
   <g id="patch_11">
    <path d="M 235.516627 93.647727 
L 412.702613 93.647727 
L 412.702613 139.753182 
L 235.516627 139.753182 
z
" clip-path="url(#p1660cdfad6)" style="fill: #c49c94; opacity: 0.5; stroke: #000000; stroke-linejoin: miter"/>
   </g>
   <g id="patch_12">
    <path d="M 412.702613 93.647727 
L 587.983373 93.647727 
L 587.983373 139.753182 
L 412.702613 139.753182 
z
" clip-path="url(#p1660cdfad6)" style="fill: #9edae5; opacity: 0.5; stroke: #000000; stroke-linejoin: miter"/>
   </g>
   <g id="patch_13">
    <path d="M 22.131354 151.279545 
L 73.572447 151.279545 
L 73.572447 197.385 
L 22.131354 197.385 
z
" clip-path="url(#p1660cdfad6)" style="fill: #ff7f0e; opacity: 0.5; stroke: #000000; stroke-linejoin: miter"/>
   </g>
   <g id="patch_14">
    <path d="M 109.771734 151.279545 
L 151.686698 151.279545 
L 151.686698 197.385 
L 109.771734 197.385 
z
" clip-path="url(#p1660cdfad6)" style="fill: #1f77b4; opacity: 0.5; stroke: #000000; stroke-linejoin: miter"/>
   </g>
   <g id="patch_15">
    <path d="M 151.686698 151.279545 
L 157.402375 151.279545 
L 157.402375 197.385 
L 151.686698 197.385 
z
" clip-path="url(#p1660cdfad6)" style="fill: #c7c7c7; opacity: 0.5; stroke: #000000; stroke-linejoin: miter"/>
   </g>
   <g id="patch_16">
    <path d="M 157.402375 151.279545 
L 212.653919 151.279545 
L 212.653919 197.385 
L 157.402375 197.385 
z
" clip-path="url(#p1660cdfad6)" style="fill: #2ca02c; opacity: 0.5; stroke: #000000; stroke-linejoin: miter"/>
   </g>
   <g id="patch_17">
    <path d="M 235.516627 151.279545 
L 372.692874 151.279545 
L 372.692874 197.385 
L 235.516627 197.385 
z
" clip-path="url(#p1660cdfad6)" style="fill: #9467bd; opacity: 0.5; stroke: #000000; stroke-linejoin: miter"/>
   </g>
   <g id="patch_18">
    <path d="M 412.702613 151.279545 
L 488.911639 151.279545 
L 488.911639 197.385 
L 412.702613 197.385 
z
" clip-path="url(#p1660cdfad6)" style="fill: #c49c94; opacity: 0.5; stroke: #000000; stroke-linejoin: miter"/>
   </g>
   <g id="patch_19">
    <path d="M 62.141093 208.911364 
L 185.98076 208.911364 
L 185.98076 255.016818 
L 62.141093 255.016818 
z
" clip-path="url(#p1660cdfad6)" style="fill: #d62728; opacity: 0.5; stroke: #000000; stroke-linejoin: miter"/>
   </g>
   <g id="patch_20">
    <path d="M 258.379335 208.911364 
L 336.493587 208.911364 
L 336.493587 255.016818 
L 258.379335 255.016818 
z
" clip-path="url(#p1660cdfad6)" style="fill: #dbdb8d; opacity: 0.5; stroke: #000000; stroke-linejoin: miter"/>
   </g>
   <g id="patch_21">
    <path d="M 439.375772 208.911364 
L 553.689311 208.911364 
L 553.689311 255.016818 
L 439.375772 255.016818 
z
" clip-path="url(#p1660cdfad6)" style="fill: #f7b6d2; opacity: 0.5; stroke: #000000; stroke-linejoin: miter"/>
   </g>
   <g id="patch_22">
    <path d="M 587.983373 208.911364 
L 675.623753 208.911364 
L 675.623753 255.016818 
L 587.983373 255.016818 
z
" clip-path="url(#p1660cdfad6)" style="fill: #9edae5; opacity: 0.5; stroke: #000000; stroke-linejoin: miter"/>
   </g>
   <g id="patch_23">
    <path d="M 73.572447 266.543182 
L 119.297862 266.543182 
L 119.297862 312.648636 
L 73.572447 312.648636 
z
" clip-path="url(#p1660cdfad6)" style="fill: #ff7f0e; opacity: 0.5; stroke: #000000; stroke-linejoin: miter"/>
   </g>
   <g id="patch_24">
    <path d="M 151.686698 266.543182 
L 166.928504 266.543182 
L 166.928504 312.648636 
L 151.686698 312.648636 
z
" clip-path="url(#p1660cdfad6)" style="fill: #1f77b4; opacity: 0.5; stroke: #000000; stroke-linejoin: miter"/>
   </g>
   <g id="patch_25">
    <path d="M 185.98076 266.543182 
L 351.735392 266.543182 
L 351.735392 312.648636 
L 185.98076 312.648636 
z
" clip-path="url(#p1660cdfad6)" style="fill: #d62728; opacity: 0.5; stroke: #000000; stroke-linejoin: miter"/>
   </g>
   <g id="patch_26">
    <path d="M 372.692874 266.543182 
L 511.774347 266.543182 
L 511.774347 312.648636 
L 372.692874 312.648636 
z
" clip-path="url(#p1660cdfad6)" style="fill: #9467bd; opacity: 0.5; stroke: #000000; stroke-linejoin: miter"/>
   </g>
   <g id="patch_27">
    <path d="M 553.689311 266.543182 
L 666.097625 266.543182 
L 666.097625 312.648636 
L 553.689311 312.648636 
z
" clip-path="url(#p1660cdfad6)" style="fill: #f7b6d2; opacity: 0.5; stroke: #000000; stroke-linejoin: miter"/>
   </g>
   <g id="patch_28">
    <path d="M 675.623753 266.543182 
L 715.633492 266.543182 
L 715.633492 312.648636 
L 675.623753 312.648636 
z
" clip-path="url(#p1660cdfad6)" style="fill: #9edae5; opacity: 0.5; stroke: #000000; stroke-linejoin: miter"/>
   </g>
   <g id="patch_29">
    <path d="M 157.402375 324.175 
L 199.31734 324.175 
L 199.31734 370.280455 
L 157.402375 370.280455 
z
" clip-path="url(#p1660cdfad6)" style="fill: #c7c7c7; opacity: 0.5; stroke: #000000; stroke-linejoin: miter"/>
   </g>
   <g id="patch_30">
    <path d="M 212.653919 324.175 
L 330.77791 324.175 
L 330.77791 370.280455 
L 212.653919 370.280455 
z
" clip-path="url(#p1660cdfad6)" style="fill: #2ca02c; opacity: 0.5; stroke: #000000; stroke-linejoin: miter"/>
   </g>
   <g id="patch_31">
    <path d="M 336.493587 324.175 
L 414.607838 324.175 
L 414.607838 370.280455 
L 336.493587 370.280455 
z
" clip-path="url(#p1660cdfad6)" style="fill: #dbdb8d; opacity: 0.5; stroke: #000000; stroke-linejoin: miter"/>
   </g>
   <g id="patch_32">
    <path d="M 488.911639 324.175 
L 614.656532 324.175 
L 614.656532 370.280455 
L 488.911639 370.280455 
z
" clip-path="url(#p1660cdfad6)" style="fill: #c49c94; opacity: 0.5; stroke: #000000; stroke-linejoin: miter"/>
   </g>
   <g id="patch_33">
    <path d="M 119.297862 381.806818 
L 193.601663 381.806818 
L 193.601663 427.912273 
L 119.297862 427.912273 
z
" clip-path="url(#p1660cdfad6)" style="fill: #ff7f0e; opacity: 0.5; stroke: #000000; stroke-linejoin: miter"/>
   </g>
   <g id="patch_34">
    <path d="M 199.31734 381.806818 
L 302.199525 381.806818 
L 302.199525 427.912273 
L 199.31734 427.912273 
z
" clip-path="url(#p1660cdfad6)" style="fill: #c7c7c7; opacity: 0.5; stroke: #000000; stroke-linejoin: miter"/>
   </g>
   <g id="patch_35">
    <path d="M 330.77791 381.806818 
L 511.774347 381.806818 
L 511.774347 427.912273 
L 330.77791 427.912273 
z
" clip-path="url(#p1660cdfad6)" style="fill: #2ca02c; opacity: 0.5; stroke: #000000; stroke-linejoin: miter"/>
   </g>
   <g id="patch_36">
    <path d="M 511.774347 381.806818 
L 618.466983 381.806818 
L 618.466983 427.912273 
L 511.774347 427.912273 
z
" clip-path="url(#p1660cdfad6)" style="fill: #9467bd; opacity: 0.5; stroke: #000000; stroke-linejoin: miter"/>
   </g>
   <g id="patch_37">
    <path d="M 618.466983 381.806818 
L 715.633492 381.806818 
L 715.633492 427.912273 
L 618.466983 427.912273 
z
" clip-path="url(#p1660cdfad6)" style="fill: #c49c94; opacity: 0.5; stroke: #000000; stroke-linejoin: miter"/>
   </g>
   <g id="patch_38">
    <path d="M 715.633492 381.806818 
L 810.894774 381.806818 
L 810.894774 427.912273 
L 715.633492 427.912273 
z
" clip-path="url(#p1660cdfad6)" style="fill: #9edae5; stroke: #000000; stroke-width: 3; stroke-linejoin: miter"/>
   </g>
   <g id="patch_39">
    <path d="M 166.928504 439.438636 
L 353.640618 439.438636 
L 353.640618 485.544091 
L 166.928504 485.544091 
z
" clip-path="url(#p1660cdfad6)" style="fill: #1f77b4; opacity: 0.5; stroke: #000000; stroke-linejoin: miter"/>
   </g>
   <g id="patch_40">
    <path d="M 353.640618 439.438636 
L 528.921378 439.438636 
L 528.921378 485.544091 
L 353.640618 485.544091 
z
" clip-path="url(#p1660cdfad6)" style="fill: #d62728; opacity: 0.5; stroke: #000000; stroke-linejoin: miter"/>
   </g>
   <g id="patch_41">
    <path d="M 528.921378 439.438636 
L 650.855819 439.438636 
L 650.855819 485.544091 
L 528.921378 485.544091 
z
" clip-path="url(#p1660cdfad6)" style="fill: #dbdb8d; opacity: 0.5; stroke: #000000; stroke-linejoin: miter"/>
   </g>
   <g id="patch_42">
    <path d="M 666.097625 439.438636 
L 810.894774 439.438636 
L 810.894774 485.544091 
L 666.097625 485.544091 
z
" clip-path="url(#p1660cdfad6)" style="fill: #f7b6d2; stroke: #000000; stroke-width: 3; stroke-linejoin: miter"/>
   </g>
   <g id="matplotlib.axis_1">
    <g id="xtick_1">
     <g id="line2d_1">
      <path d="M 10.7 514.36 
L 10.7 7.2 
" clip-path="url(#p1660cdfad6)" style="fill: none; stroke-dasharray: 2.96,1.28; stroke-dashoffset: 0; stroke: #b0b0b0; stroke-opacity: 0.3; stroke-width: 0.8"/>
     </g>
     <g id="line2d_2">
      <defs>
       <path id="mcb7860fbc8" d="M 0 0 
L 0 3.5 
" style="stroke: #000000; stroke-width: 0.8"/>
      </defs>
      <g>
       <use xlink:href="#mcb7860fbc8" x="10.7" y="514.36" style="stroke: #000000; stroke-width: 0.8"/>
      </g>
     </g>
     <g id="text_1">
      <!-- 0 -->
      <g transform="translate(7.51875 528.958438) scale(0.1 -0.1)">
       <defs>
        <path id="DejaVuSans-30" d="M 2034 4250 
Q 1547 4250 1301 3770 
Q 1056 3291 1056 2328 
Q 1056 1369 1301 889 
Q 1547 409 2034 409 
Q 2525 409 2770 889 
Q 3016 1369 3016 2328 
Q 3016 3291 2770 3770 
Q 2525 4250 2034 4250 
z
M 2034 4750 
Q 2819 4750 3233 4129 
Q 3647 3509 3647 2328 
Q 3647 1150 3233 529 
Q 2819 -91 2034 -91 
Q 1250 -91 836 529 
Q 422 1150 422 2328 
Q 422 3509 836 4129 
Q 1250 4750 2034 4750 
z
" transform="scale(0.015625)"/>
       </defs>
       <use xlink:href="#DejaVuSans-30"/>
      </g>
     </g>
    </g>
    <g id="xtick_2">
     <g id="line2d_3">
      <path d="M 201.222565 514.36 
L 201.222565 7.2 
" clip-path="url(#p1660cdfad6)" style="fill: none; stroke-dasharray: 2.96,1.28; stroke-dashoffset: 0; stroke: #b0b0b0; stroke-opacity: 0.3; stroke-width: 0.8"/>
     </g>
     <g id="line2d_4">
      <g>
       <use xlink:href="#mcb7860fbc8" x="201.222565" y="514.36" style="stroke: #000000; stroke-width: 0.8"/>
      </g>
     </g>
     <g id="text_2">
      <!-- 100 -->
      <g transform="translate(191.678815 528.958438) scale(0.1 -0.1)">
       <defs>
        <path id="DejaVuSans-31" d="M 794 531 
L 1825 531 
L 1825 4091 
L 703 3866 
L 703 4441 
L 1819 4666 
L 2450 4666 
L 2450 531 
L 3481 531 
L 3481 0 
L 794 0 
L 794 531 
z
" transform="scale(0.015625)"/>
       </defs>
       <use xlink:href="#DejaVuSans-31"/>
       <use xlink:href="#DejaVuSans-30" transform="translate(63.623047 0)"/>
       <use xlink:href="#DejaVuSans-30" transform="translate(127.246094 0)"/>
      </g>
     </g>
    </g>
    <g id="xtick_3">
     <g id="line2d_5">
      <path d="M 391.745131 514.36 
L 391.745131 7.2 
" clip-path="url(#p1660cdfad6)" style="fill: none; stroke-dasharray: 2.96,1.28; stroke-dashoffset: 0; stroke: #b0b0b0; stroke-opacity: 0.3; stroke-width: 0.8"/>
     </g>
     <g id="line2d_6">
      <g>
       <use xlink:href="#mcb7860fbc8" x="391.745131" y="514.36" style="stroke: #000000; stroke-width: 0.8"/>
      </g>
     </g>
     <g id="text_3">
      <!-- 200 -->
      <g transform="translate(382.201381 528.958438) scale(0.1 -0.1)">
       <defs>
        <path id="DejaVuSans-32" d="M 1228 531 
L 3431 531 
L 3431 0 
L 469 0 
L 469 531 
Q 828 903 1448 1529 
Q 2069 2156 2228 2338 
Q 2531 2678 2651 2914 
Q 2772 3150 2772 3378 
Q 2772 3750 2511 3984 
Q 2250 4219 1831 4219 
Q 1534 4219 1204 4116 
Q 875 4013 500 3803 
L 500 4441 
Q 881 4594 1212 4672 
Q 1544 4750 1819 4750 
Q 2544 4750 2975 4387 
Q 3406 4025 3406 3419 
Q 3406 3131 3298 2873 
Q 3191 2616 2906 2266 
Q 2828 2175 2409 1742 
Q 1991 1309 1228 531 
z
" transform="scale(0.015625)"/>
       </defs>
       <use xlink:href="#DejaVuSans-32"/>
       <use xlink:href="#DejaVuSans-30" transform="translate(63.623047 0)"/>
       <use xlink:href="#DejaVuSans-30" transform="translate(127.246094 0)"/>
      </g>
     </g>
    </g>
    <g id="xtick_4">
     <g id="line2d_7">
      <path d="M 582.267696 514.36 
L 582.267696 7.2 
" clip-path="url(#p1660cdfad6)" style="fill: none; stroke-dasharray: 2.96,1.28; stroke-dashoffset: 0; stroke: #b0b0b0; stroke-opacity: 0.3; stroke-width: 0.8"/>
     </g>
     <g id="line2d_8">
      <g>
       <use xlink:href="#mcb7860fbc8" x="582.267696" y="514.36" style="stroke: #000000; stroke-width: 0.8"/>
      </g>
     </g>
     <g id="text_4">
      <!-- 300 -->
      <g transform="translate(572.723946 528.958438) scale(0.1 -0.1)">
       <defs>
        <path id="DejaVuSans-33" d="M 2597 2516 
Q 3050 2419 3304 2112 
Q 3559 1806 3559 1356 
Q 3559 666 3084 287 
Q 2609 -91 1734 -91 
Q 1441 -91 1130 -33 
Q 819 25 488 141 
L 488 750 
Q 750 597 1062 519 
Q 1375 441 1716 441 
Q 2309 441 2620 675 
Q 2931 909 2931 1356 
Q 2931 1769 2642 2001 
Q 2353 2234 1838 2234 
L 1294 2234 
L 1294 2753 
L 1863 2753 
Q 2328 2753 2575 2939 
Q 2822 3125 2822 3475 
Q 2822 3834 2567 4026 
Q 2313 4219 1838 4219 
Q 1578 4219 1281 4162 
Q 984 4106 628 3988 
L 628 4550 
Q 988 4650 1302 4700 
Q 1616 4750 1894 4750 
Q 2613 4750 3031 4423 
Q 3450 4097 3450 3541 
Q 3450 3153 3228 2886 
Q 3006 2619 2597 2516 
z
" transform="scale(0.015625)"/>
       </defs>
       <use xlink:href="#DejaVuSans-33"/>
       <use xlink:href="#DejaVuSans-30" transform="translate(63.623047 0)"/>
       <use xlink:href="#DejaVuSans-30" transform="translate(127.246094 0)"/>
      </g>
     </g>
    </g>
    <g id="xtick_5">
     <g id="line2d_9">
      <path d="M 772.790261 514.36 
L 772.790261 7.2 
" clip-path="url(#p1660cdfad6)" style="fill: none; stroke-dasharray: 2.96,1.28; stroke-dashoffset: 0; stroke: #b0b0b0; stroke-opacity: 0.3; stroke-width: 0.8"/>
     </g>
     <g id="line2d_10">
      <g>
       <use xlink:href="#mcb7860fbc8" x="772.790261" y="514.36" style="stroke: #000000; stroke-width: 0.8"/>
      </g>
     </g>
     <g id="text_5">
      <!-- 400 -->
      <g transform="translate(763.246511 528.958438) scale(0.1 -0.1)">
       <defs>
        <path id="DejaVuSans-34" d="M 2419 4116 
L 825 1625 
L 2419 1625 
L 2419 4116 
z
M 2253 4666 
L 3047 4666 
L 3047 1625 
L 3713 1625 
L 3713 1100 
L 3047 1100 
L 3047 0 
L 2419 0 
L 2419 1100 
L 313 1100 
L 313 1709 
L 2253 4666 
z
" transform="scale(0.015625)"/>
       </defs>
       <use xlink:href="#DejaVuSans-34"/>
       <use xlink:href="#DejaVuSans-30" transform="translate(63.623047 0)"/>
       <use xlink:href="#DejaVuSans-30" transform="translate(127.246094 0)"/>
      </g>
     </g>
    </g>
   </g>
   <g id="matplotlib.axis_2">
    <g id="ytick_1">
     <g id="line2d_11">
      <defs>
       <path id="m2fd8e09f6b" d="M 0 0 
L -3.5 0 
" style="stroke: #000000; stroke-width: 0.8"/>
      </defs>
      <g>
       <use xlink:href="#m2fd8e09f6b" x="10.7" y="59.068636" style="stroke: #000000; stroke-width: 0.8"/>
      </g>
     </g>
    </g>
    <g id="ytick_2">
     <g id="line2d_12">
      <g>
       <use xlink:href="#m2fd8e09f6b" x="10.7" y="116.700455" style="stroke: #000000; stroke-width: 0.8"/>
      </g>
     </g>
    </g>
    <g id="ytick_3">
     <g id="line2d_13">
      <g>
       <use xlink:href="#m2fd8e09f6b" x="10.7" y="174.332273" style="stroke: #000000; stroke-width: 0.8"/>
      </g>
     </g>
    </g>
    <g id="ytick_4">
     <g id="line2d_14">
      <g>
       <use xlink:href="#m2fd8e09f6b" x="10.7" y="231.964091" style="stroke: #000000; stroke-width: 0.8"/>
      </g>
     </g>
    </g>
    <g id="ytick_5">
     <g id="line2d_15">
      <g>
       <use xlink:href="#m2fd8e09f6b" x="10.7" y="289.595909" style="stroke: #000000; stroke-width: 0.8"/>
      </g>
     </g>
    </g>
    <g id="ytick_6">
     <g id="line2d_16">
      <g>
       <use xlink:href="#m2fd8e09f6b" x="10.7" y="347.227727" style="stroke: #000000; stroke-width: 0.8"/>
      </g>
     </g>
    </g>
    <g id="ytick_7">
     <g id="line2d_17">
      <g>
       <use xlink:href="#m2fd8e09f6b" x="10.7" y="404.859545" style="stroke: #000000; stroke-width: 0.8"/>
      </g>
     </g>
    </g>
    <g id="ytick_8">
     <g id="line2d_18">
      <g>
       <use xlink:href="#m2fd8e09f6b" x="10.7" y="462.491364" style="stroke: #000000; stroke-width: 0.8"/>
      </g>
     </g>
    </g>
   </g>
   <g id="patch_43">
    <path d="M 10.7 514.36 
L 10.7 7.2 
" style="fill: none; stroke: #000000; stroke-width: 0.8; stroke-linejoin: miter; stroke-linecap: square"/>
   </g>
   <g id="patch_44">
    <path d="M 812.8 514.36 
L 812.8 7.2 
" style="fill: none; stroke: #000000; stroke-width: 0.8; stroke-linejoin: miter; stroke-linecap: square"/>
   </g>
   <g id="patch_45">
    <path d="M 10.7 514.36 
L 812.8 514.36 
" style="fill: none; stroke: #000000; stroke-width: 0.8; stroke-linejoin: miter; stroke-linecap: square"/>
   </g>
   <g id="patch_46">
    <path d="M 10.7 7.2 
L 812.8 7.2 
" style="fill: none; stroke: #000000; stroke-width: 0.8; stroke-linejoin: miter; stroke-linecap: square"/>
   </g>
  </g>
 </g>
 <defs>
  <clipPath id="p1660cdfad6">
   <rect x="10.7" y="7.2" width="802.1" height="507.16"/>
  </clipPath>
 </defs>
</svg>
